<svg width="70.02" height="70.02" viewBox="0 0 70.02 70.02" xmlns="http://www.w3.org/2000/svg"><g id="svgGroup" stroke-linecap="round" fill-rule="nonzero" font-size="9pt" stroke="#000" stroke-width="0" fill="#000" style="stroke:#000;stroke-width:0;fill:#000"><path d="M 0 70.02 L 0 0 L 69.971 0 L 69.971 7.178 L 7.178 7.178 L 7.178 62.842 L 69.971 62.842 L 69.971 70.02 L 0 70.02 Z M 8.936 61.035 L 8.936 8.936 A 10958.186 10958.186 0 0 0 14.697 8.957 Q 22.318 8.983 26.566 8.984 A 1428.334 1428.334 0 0 0 27.002 8.984 L 69.971 8.984 L 69.971 16.162 L 16.113 16.162 L 16.113 53.857 L 69.971 53.857 L 69.971 61.035 L 8.936 61.035 Z M 17.92 52.1 L 17.92 17.92 L 70.02 17.92 L 70.02 25.146 L 25.098 25.146 L 25.098 44.873 L 70.02 44.873 L 70.02 52.1 L 17.92 52.1 Z M 26.953 26.904 L 70.02 26.904 L 70.02 34.131 L 34.082 34.131 L 34.082 35.889 L 70.02 35.889 L 70.02 43.115 L 26.953 43.115 Q 26.876 43.115 26.86 43.054 A 0.144 0.144 0 0 1 26.855 43.018 L 26.855 27.002 Q 26.855 26.924 26.917 26.908 A 0.144 0.144 0 0 1 26.953 26.904 Z"/></g></svg>